<svg width="58" height="40" viewBox="0 0 58 40" fill="none" xmlns="http://www.w3.org/2000/svg">
<path d="M2.64131 10.544C3.75049 11.5735 5.09074 12.0882 6.66207 12.0882C8.27962 12.0882 9.61988 11.5735 10.6828 10.544C11.7458 9.5146 12.2773 8.1576 12.2773 6.47306C12.2773 4.78852 11.7458 3.43152 10.6828 2.40208C9.61988 1.37263 8.27962 0.85791 6.66207 0.85791C5.09074 0.85791 3.75049 1.37263 2.64131 2.40208C1.57835 3.43152 1.04688 4.78852 1.04688 6.47306C1.04688 8.1576 1.57835 9.5146 2.64131 10.544Z" fill="#FF5744"/>
<path d="M15.4219 38.5912V1.75586H24.8554V38.5912H15.4219Z" fill="#26252D"/>
<path fill-rule="evenodd" clip-rule="evenodd" d="M39.6797 26.9119L46.2546 15.2324H55.8515L49.1949 26.9119L55.8515 38.5914H46.2546L39.6797 26.9119Z" fill="#26252D"/>
<path d="M1.94531 38.5914V15.2324H11.3788V38.5914H1.94531Z" fill="#26252D"/>
<path d="M37.3704 15.2326L43.9453 26.9121H34.4301L27.7735 15.2326H37.3704Z" fill="#FF5744"/>
<path d="M37.3704 38.5916L43.9453 26.9121H34.4301L27.7735 38.5916H37.3704Z" fill="#FF5744"/>
</svg>
